<mxfile host="Electron" modified="2023-10-07T06:21:49.691Z" agent="Mozilla/5.0 (Windows NT 10.0; Win64; x64) AppleWebKit/537.36 (KHTML, like Gecko) draw.io/22.0.0 Chrome/114.0.5735.289 Electron/25.8.3 Safari/537.36" etag="-DfvwlGA7WiU3PPjiv5U" version="22.0.0" type="device">
  <diagram name="Page-1" id="EEt6lI0aAA-d0JNPY9X9">
    <mxGraphModel dx="1036" dy="606" grid="1" gridSize="10" guides="1" tooltips="1" connect="1" arrows="1" fold="1" page="1" pageScale="1" pageWidth="850" pageHeight="1100" math="0" shadow="0">
      <root>
        <mxCell id="0" />
        <mxCell id="1" parent="0" />
        <mxCell id="Z2kXabI_D8QP0BC8XG_g-1" value="" style="endArrow=none;html=1;strokeWidth=6;rounded=0;" edge="1" parent="1" source="Z2kXabI_D8QP0BC8XG_g-17">
          <mxGeometry width="50" height="50" relative="1" as="geometry">
            <mxPoint x="80" y="200" as="sourcePoint" />
            <mxPoint x="720" y="200" as="targetPoint" />
          </mxGeometry>
        </mxCell>
        <mxCell id="Z2kXabI_D8QP0BC8XG_g-6" value="" style="endArrow=none;html=1;strokeWidth=6;rounded=0;" edge="1" parent="1" target="Z2kXabI_D8QP0BC8XG_g-4">
          <mxGeometry width="50" height="50" relative="1" as="geometry">
            <mxPoint x="80" y="200" as="sourcePoint" />
            <mxPoint x="600" y="200" as="targetPoint" />
          </mxGeometry>
        </mxCell>
        <mxCell id="Z2kXabI_D8QP0BC8XG_g-4" value="" style="rhombus;whiteSpace=wrap;html=1;" vertex="1" parent="1">
          <mxGeometry x="110" y="185" width="30" height="30" as="geometry" />
        </mxCell>
        <mxCell id="Z2kXabI_D8QP0BC8XG_g-7" value="MODELAÇÃO" style="text;html=1;strokeColor=none;fillColor=none;align=center;verticalAlign=middle;whiteSpace=wrap;rounded=0;" vertex="1" parent="1">
          <mxGeometry x="95" y="216" width="60" height="30" as="geometry" />
        </mxCell>
        <mxCell id="Z2kXabI_D8QP0BC8XG_g-9" value="" style="endArrow=none;html=1;strokeWidth=6;rounded=0;" edge="1" parent="1" source="Z2kXabI_D8QP0BC8XG_g-4" target="Z2kXabI_D8QP0BC8XG_g-8">
          <mxGeometry width="50" height="50" relative="1" as="geometry">
            <mxPoint x="140" y="200" as="sourcePoint" />
            <mxPoint x="600" y="200" as="targetPoint" />
          </mxGeometry>
        </mxCell>
        <mxCell id="Z2kXabI_D8QP0BC8XG_g-8" value="" style="rhombus;whiteSpace=wrap;html=1;" vertex="1" parent="1">
          <mxGeometry x="230" y="185" width="30" height="30" as="geometry" />
        </mxCell>
        <mxCell id="Z2kXabI_D8QP0BC8XG_g-10" value="SHADING" style="text;html=1;strokeColor=none;fillColor=none;align=center;verticalAlign=middle;whiteSpace=wrap;rounded=0;" vertex="1" parent="1">
          <mxGeometry x="215" y="155" width="60" height="30" as="geometry" />
        </mxCell>
        <mxCell id="Z2kXabI_D8QP0BC8XG_g-12" value="" style="endArrow=none;html=1;strokeWidth=6;rounded=0;" edge="1" parent="1" source="Z2kXabI_D8QP0BC8XG_g-8" target="Z2kXabI_D8QP0BC8XG_g-11">
          <mxGeometry width="50" height="50" relative="1" as="geometry">
            <mxPoint x="260" y="200" as="sourcePoint" />
            <mxPoint x="600" y="200" as="targetPoint" />
          </mxGeometry>
        </mxCell>
        <mxCell id="Z2kXabI_D8QP0BC8XG_g-11" value="" style="rhombus;whiteSpace=wrap;html=1;" vertex="1" parent="1">
          <mxGeometry x="350" y="185" width="30" height="30" as="geometry" />
        </mxCell>
        <mxCell id="Z2kXabI_D8QP0BC8XG_g-13" value="EFEITOS PÓS-PROCESSAMENTO" style="text;html=1;strokeColor=none;fillColor=none;align=center;verticalAlign=middle;whiteSpace=wrap;rounded=0;" vertex="1" parent="1">
          <mxGeometry x="335" y="220" width="60" height="30" as="geometry" />
        </mxCell>
        <mxCell id="Z2kXabI_D8QP0BC8XG_g-15" value="" style="endArrow=none;html=1;strokeWidth=6;rounded=0;" edge="1" parent="1" source="Z2kXabI_D8QP0BC8XG_g-11" target="Z2kXabI_D8QP0BC8XG_g-14">
          <mxGeometry width="50" height="50" relative="1" as="geometry">
            <mxPoint x="370" y="200" as="sourcePoint" />
            <mxPoint x="600" y="200" as="targetPoint" />
          </mxGeometry>
        </mxCell>
        <mxCell id="Z2kXabI_D8QP0BC8XG_g-14" value="" style="rhombus;whiteSpace=wrap;html=1;" vertex="1" parent="1">
          <mxGeometry x="470" y="185" width="30" height="30" as="geometry" />
        </mxCell>
        <mxCell id="Z2kXabI_D8QP0BC8XG_g-16" value="RENDERING" style="text;html=1;strokeColor=none;fillColor=none;align=center;verticalAlign=middle;whiteSpace=wrap;rounded=0;" vertex="1" parent="1">
          <mxGeometry x="455" y="155" width="60" height="30" as="geometry" />
        </mxCell>
        <mxCell id="Z2kXabI_D8QP0BC8XG_g-18" value="" style="endArrow=none;html=1;strokeWidth=6;rounded=0;" edge="1" parent="1" source="Z2kXabI_D8QP0BC8XG_g-14" target="Z2kXabI_D8QP0BC8XG_g-17">
          <mxGeometry width="50" height="50" relative="1" as="geometry">
            <mxPoint x="500" y="200" as="sourcePoint" />
            <mxPoint x="760" y="200" as="targetPoint" />
          </mxGeometry>
        </mxCell>
        <mxCell id="Z2kXabI_D8QP0BC8XG_g-17" value="" style="rhombus;whiteSpace=wrap;html=1;" vertex="1" parent="1">
          <mxGeometry x="590" y="185" width="30" height="30" as="geometry" />
        </mxCell>
        <mxCell id="Z2kXabI_D8QP0BC8XG_g-19" value="" style="shape=flexArrow;endArrow=classic;startArrow=classic;html=1;rounded=0;width=6.666666666666667;endSize=5.8916666666666675;endWidth=20.27777777777778;" edge="1" parent="1">
          <mxGeometry width="100" height="100" relative="1" as="geometry">
            <mxPoint x="80" y="280" as="sourcePoint" />
            <mxPoint x="540" y="280" as="targetPoint" />
          </mxGeometry>
        </mxCell>
        <mxCell id="Z2kXabI_D8QP0BC8XG_g-20" value="&lt;font style=&quot;font-size: 18px;&quot;&gt;BLENDER&lt;/font&gt;" style="edgeLabel;html=1;align=center;verticalAlign=middle;resizable=0;points=[];" vertex="1" connectable="0" parent="Z2kXabI_D8QP0BC8XG_g-19">
          <mxGeometry x="0.1931" y="-5" relative="1" as="geometry">
            <mxPoint x="-47" y="15" as="offset" />
          </mxGeometry>
        </mxCell>
        <mxCell id="Z2kXabI_D8QP0BC8XG_g-21" value="IMPORTAÇÃO DE IMAGENS" style="text;html=1;strokeColor=none;fillColor=none;align=center;verticalAlign=middle;whiteSpace=wrap;rounded=0;" vertex="1" parent="1">
          <mxGeometry x="575" y="222" width="60" height="30" as="geometry" />
        </mxCell>
        <mxCell id="Z2kXabI_D8QP0BC8XG_g-22" value="" style="shape=flexArrow;endArrow=classic;startArrow=classic;html=1;rounded=0;width=6.666666666666667;endSize=5.8916666666666675;endWidth=20.27777777777778;" edge="1" parent="1">
          <mxGeometry width="100" height="100" relative="1" as="geometry">
            <mxPoint x="540" y="280" as="sourcePoint" />
            <mxPoint x="720" y="280" as="targetPoint" />
          </mxGeometry>
        </mxCell>
        <mxCell id="Z2kXabI_D8QP0BC8XG_g-23" value="&lt;font style=&quot;font-size: 18px;&quot;&gt;UNREAL&lt;br&gt;&amp;nbsp;ENGINE&lt;/font&gt;" style="edgeLabel;html=1;align=center;verticalAlign=middle;resizable=0;points=[];" vertex="1" connectable="0" parent="Z2kXabI_D8QP0BC8XG_g-22">
          <mxGeometry x="0.1931" y="-5" relative="1" as="geometry">
            <mxPoint x="-17" y="28" as="offset" />
          </mxGeometry>
        </mxCell>
      </root>
    </mxGraphModel>
  </diagram>
</mxfile>
